<svg width="243" height="177" viewBox="0 0 243 177" fill="none" xmlns="http://www.w3.org/2000/svg">
<path d="M174.656 108.614V12.0682C174.656 5.41409 169.546 0 163.266 0H11.3906C5.11012 0 0 5.41409 0 12.0682V108.614C0 115.268 5.11012 120.682 11.3906 120.682H163.266C169.546 120.682 174.656 115.268 174.656 108.614ZM7.59375 108.614V12.0682C7.59375 9.85015 9.29712 8.04545 11.3906 8.04545H163.266C165.359 8.04545 167.062 9.85015 167.062 12.0682V108.614C167.062 110.832 165.359 112.636 163.266 112.636H11.3906C9.29712 112.636 7.59375 110.832 7.59375 108.614Z" fill="white"/>
<path d="M231.609 56.3184H186.047C183.95 56.3184 182.25 58.1195 182.25 60.3411C182.25 62.5626 183.95 64.3638 186.047 64.3638H231.609C233.703 64.3638 235.406 66.1685 235.406 68.3865V88.5002H186.047C183.95 88.5002 182.25 90.3014 182.25 92.5229C182.25 94.7445 183.95 96.5456 186.047 96.5456H235.406V164.932C235.406 167.15 233.703 168.955 231.609 168.955H79.7344C77.6409 168.955 75.9375 167.15 75.9375 164.932V132.75C75.9375 130.529 74.2374 128.727 72.1406 128.727C70.0438 128.727 68.3438 130.529 68.3438 132.75V164.932C68.3438 171.586 73.4539 177 79.7344 177H231.609C237.89 177 243 171.586 243 164.932V68.3865C243 61.7324 237.89 56.3184 231.609 56.3184Z" fill="white"/>
<path d="M79.7344 84.4775H60.75C58.6532 84.4775 56.9531 86.2787 56.9531 88.5003C56.9531 90.7218 58.6532 92.523 60.75 92.523H79.7344C81.8312 92.523 83.5312 90.7218 83.5312 88.5003C83.5312 86.2787 81.8312 84.4775 79.7344 84.4775Z" fill="white"/>
<path d="M45.5625 84.4775H26.5781C24.4813 84.4775 22.7812 86.2787 22.7812 88.5003C22.7812 90.7218 24.4813 92.523 26.5781 92.523H45.5625C47.6593 92.523 49.3594 90.7218 49.3594 88.5003C49.3594 86.2787 47.6593 84.4775 45.5625 84.4775Z" fill="white"/>
<path d="M148.078 84.4775H129.094C126.997 84.4775 125.297 86.2787 125.297 88.5003C125.297 90.7218 126.997 92.523 129.094 92.523H148.078C150.175 92.523 151.875 90.7218 151.875 88.5003C151.875 86.2787 150.175 84.4775 148.078 84.4775Z" fill="white"/>
<path d="M113.906 84.4775H94.9219C92.8251 84.4775 91.125 86.2787 91.125 88.5003C91.125 90.7218 92.8251 92.523 94.9219 92.523H113.906C116.003 92.523 117.703 90.7218 117.703 88.5003C117.703 86.2787 116.003 84.4775 113.906 84.4775Z" fill="white"/>
<path d="M41.7656 20.1133H30.375C24.094 20.1133 18.9844 25.5274 18.9844 32.1815V36.2042C18.9844 42.8583 24.094 48.2724 30.375 48.2724H41.7656C48.0466 48.2724 53.1562 42.8583 53.1562 36.2042V32.1815C53.1562 25.5274 48.0466 20.1133 41.7656 20.1133ZM45.5625 36.2042C45.5625 38.4222 43.8591 40.2269 41.7656 40.2269H30.375C28.2815 40.2269 26.5781 38.4222 26.5781 36.2042V32.1815C26.5781 29.9634 28.2815 28.1587 30.375 28.1587H41.7656C43.8591 28.1587 45.5625 29.9634 45.5625 32.1815V36.2042Z" fill="white"/>
<path d="M140.484 20.1133C135.951 20.1133 131.879 22.2307 129.094 25.5782C126.309 22.2307 122.236 20.1133 117.703 20.1133C109.329 20.1133 102.516 27.3316 102.516 36.2042C102.516 45.0768 109.329 52.2951 117.703 52.2951C122.236 52.2951 126.309 50.1776 129.094 46.8302C131.879 50.1776 135.951 52.2951 140.484 52.2951C148.859 52.2951 155.672 45.0768 155.672 36.2042C155.672 27.3316 148.859 20.1133 140.484 20.1133ZM117.703 44.2496C113.516 44.2496 110.109 40.6403 110.109 36.2042C110.109 31.7681 113.516 28.1587 117.703 28.1587C121.89 28.1587 125.297 31.7681 125.297 36.2042C125.297 40.6403 121.89 44.2496 117.703 44.2496ZM140.484 44.2496C136.297 44.2496 132.891 40.6403 132.891 36.2042C132.891 31.7681 136.297 28.1587 140.484 28.1587C144.671 28.1587 148.078 31.7681 148.078 36.2042C148.078 40.6403 144.671 44.2496 140.484 44.2496Z" fill="white"/>
<path d="M186.047 80.4546H227.812C229.909 80.4546 231.609 78.6535 231.609 76.4319C231.609 74.2104 229.909 72.4092 227.812 72.4092H186.047C183.95 72.4092 182.25 74.2104 182.25 76.4319C182.25 78.6535 183.95 80.4546 186.047 80.4546Z" fill="white"/>
<path d="M216.422 128.728H144.281C142.184 128.728 140.484 130.529 140.484 132.75C140.484 134.972 142.184 136.773 144.281 136.773H216.422C218.519 136.773 220.219 134.972 220.219 132.75C220.219 130.529 218.519 128.728 216.422 128.728Z" fill="white"/>
<path d="M216.422 144.818H170.859C168.763 144.818 167.062 146.62 167.062 148.841C167.062 151.063 168.763 152.864 170.859 152.864H216.422C218.519 152.864 220.219 151.063 220.219 148.841C220.219 146.62 218.519 144.818 216.422 144.818Z" fill="white"/>
</svg>
