<svg width="36" height="28" viewBox="0 0 36 28" fill="none" xmlns="http://www.w3.org/2000/svg">
<path d="M31.3804 0H4.37093C1.95989 0 0 1.95989 0 4.37093V22.8309C0 25.2419 1.95989 27.2018 4.37093 27.2018H31.3731C33.7841 27.2018 35.744 25.2419 35.744 22.8309V4.37832C35.7514 1.96729 33.7915 0 31.3804 0ZM33.7545 22.8309C33.7545 24.1399 32.6895 25.2049 31.3804 25.2049H4.37093C3.06187 25.2049 1.99687 24.1399 1.99687 22.8309V4.37832C1.99687 3.06926 3.06187 2.00427 4.37093 2.00427H31.3731C32.6821 2.00427 33.7471 3.06926 33.7471 4.37832V22.8309H33.7545Z" fill="#0049D6"/>
<path d="M22.5426 13.3715L31.2845 5.53189C31.6913 5.1621 31.7282 4.53346 31.3585 4.11929C30.9887 3.71252 30.36 3.67554 29.9459 4.04533L17.8907 14.8654L15.5388 12.765C15.5314 12.7576 15.524 12.7502 15.524 12.7428C15.4722 12.691 15.4205 12.6467 15.3613 12.6023L5.79112 4.03794C5.37695 3.66815 4.74831 3.70513 4.37851 4.11929C4.00872 4.53346 4.0457 5.1621 4.45987 5.53189L13.3053 13.438L4.49685 21.6844C4.09747 22.0615 4.07529 22.6902 4.45247 23.097C4.65216 23.304 4.91841 23.415 5.18466 23.415C5.42872 23.415 5.67278 23.3262 5.86507 23.1487L14.8066 14.7841L17.2324 16.951C17.4247 17.1211 17.6614 17.2025 17.8981 17.2025C18.1347 17.2025 18.3788 17.1137 18.5637 16.9436L21.0561 14.7101L29.9459 23.1561C30.1381 23.341 30.3896 23.4298 30.6337 23.4298C30.8999 23.4298 31.1588 23.3262 31.3585 23.1191C31.7356 22.7198 31.7209 22.0837 31.3215 21.7065L22.5426 13.3715Z" fill="#0049D6"/>
</svg>
