<svg width="27" height="38" viewBox="0 0 27 38" fill="none" xmlns="http://www.w3.org/2000/svg">
<path d="M22.4123 14.0486V9.13997C22.4123 4.10195 18.318 0 13.2724 0C8.22673 0 4.13239 4.10195 4.13239 9.13997V14.0486C1.81886 14.2845 0 16.248 0 18.63V32.6862C0 35.2281 2.07 37.2905 4.60423 37.2905H21.9405C24.4823 37.2905 26.5447 35.2281 26.5447 32.6862V18.63C26.5447 16.248 24.7335 14.2845 22.4123 14.0486ZM7.23739 9.13997C7.23739 5.81427 9.94666 3.105 13.2724 3.105C16.5981 3.105 19.3073 5.81427 19.3073 9.13997V14.0182H7.23739V9.13997ZM23.4397 32.6862C23.4397 33.5081 22.77 34.1855 21.9405 34.1855H4.60423C3.77471 34.1855 3.105 33.5157 3.105 32.6862V18.63C3.105 17.8005 3.77471 17.1308 4.60423 17.1308H21.9405C22.77 17.1308 23.4397 17.8005 23.4397 18.63V32.6862Z" fill="#0049D6"/>
<path d="M13.2727 25.7227C12.4128 25.7227 11.7202 26.4152 11.7202 27.2752V30.3269C11.7202 31.1868 12.4128 31.8794 13.2727 31.8794C14.1327 31.8794 14.8252 31.1868 14.8252 30.3269V27.2752C14.8252 26.4228 14.1327 25.7227 13.2727 25.7227Z" fill="#0049D6"/>
</svg>
