<svg width="183" height="196" viewBox="0 0 183 196" fill="none" xmlns="http://www.w3.org/2000/svg">
<path d="M161.861 136.123C150.046 126.018 138.056 119.897 126.386 129.987L119.418 136.085C114.32 140.512 104.84 161.196 68.1899 119.035C31.5471 76.9272 53.3527 70.371 58.4587 65.9825L65.4652 59.8766C77.0739 49.7638 72.6929 37.0331 64.3203 23.9284L59.2677 15.9908C50.8569 2.91665 41.6981 -5.6697 30.0589 4.42785L23.7698 9.92312C18.6256 13.6706 4.24637 25.8518 0.758403 48.9929C-3.43937 76.7593 9.8027 108.555 40.1411 143.443C70.4414 178.345 100.108 195.877 128.21 195.571C151.565 195.32 165.67 182.787 170.081 178.231L176.393 172.728C188.002 162.638 180.789 152.365 168.967 142.237L161.861 136.123Z" fill="white"/>
</svg>
