<svg width="181" height="206" viewBox="0 0 181 206" fill="none" xmlns="http://www.w3.org/2000/svg">
<path d="M146.499 60.7729C112.021 78.5949 87.1701 101.103 77.0803 111.106L51.1736 93.9926C50.4876 93.5766 36.2663 104.223 36.644 104.555L83.8249 145.002C84.1717 145.333 84.6496 145.483 85.166 145.483C85.2585 145.483 85.405 145.483 85.5283 145.457C86.145 145.34 86.6691 144.989 86.9004 144.469C94.5005 128.083 119.598 93.7781 151.648 68.8975C152.218 68.4425 152.419 67.7275 152.103 67.1101C152.095 67.1036 146.977 60.5259 146.499 60.7729Z" fill="white"/>
<path d="M177.439 24.9717C106.001 24.9717 93.9147 2.10589 93.8067 1.8914C93.2826 0.773459 91.9877 0.0259986 90.5231 0C90.5231 0 90.4923 0 90.4615 0C89.0432 0 87.7328 0.74746 87.1624 1.8394C87.0776 2.07989 74.7294 24.9717 3.56111 24.9717C1.57244 24.9717 0 26.3301 0 27.968V130.429C0 172.371 85.4358 204.414 89.0509 205.76C89.5288 205.935 89.9836 206 90.5 206C90.9702 206 91.4789 205.935 91.9337 205.76C95.5796 204.414 181 172.371 181 130.429V27.968C180.985 26.3301 179.404 24.9717 177.439 24.9717ZM161.345 124.468C161.345 157.285 94.4542 182.393 91.61 183.433C91.2631 183.583 90.8546 183.635 90.4923 183.635C90.0992 183.635 89.7369 183.583 89.3669 183.433C86.5535 182.393 19.6401 157.285 19.6401 124.468V44.2691C19.6401 42.9757 20.8811 41.9098 22.4304 41.9098C78.1517 41.9098 87.8099 23.9967 87.9024 23.8212C88.3418 22.9568 89.3592 22.3718 90.4769 22.3718C90.4923 22.3718 90.5231 22.3718 90.5231 22.3718C91.6639 22.3848 92.6737 22.9698 93.0822 23.8602C93.1747 24.0227 102.64 41.9098 158.554 41.9098C160.104 41.9098 161.337 42.9757 161.337 44.2691L161.345 124.468Z" fill="white"/>
</svg>
